<svg width="34" height="22" viewBox="0 0 34 22" fill="none" xmlns="http://www.w3.org/2000/svg">
<path d="M0 19.4852C0 20.8741 1.12588 22 2.51482 22H31.0642C32.453 22 33.579 20.8741 33.579 19.4852V17.3684H0V19.4852ZM31.0642 0H2.51482C1.12588 0 0 1.12588 0 2.51482V4.6316H33.579V2.51482C33.579 1.12588 32.4531 0 31.0642 0Z" fill="#C8414B"/>
<path d="M0 4.63281H33.579V17.3699H0V4.63281Z" fill="#FFD250"/>
<path d="M14.1843 10.9999L14.6752 8.79092C14.7205 8.58748 14.5656 8.39453 14.3572 8.39453H14.0114C13.8031 8.39453 13.6483 8.58755 13.6934 8.79092L14.1843 10.9999Z" fill="#C8414B"/>
<path d="M13.605 9.8418H14.7629V14.7626H13.605V9.8418Z" fill="#F5F5F5"/>
<path d="M13.3154 9.26367H15.0523V9.84265H13.3154V9.26367Z" fill="#FAB446"/>
<path d="M12.1582 10.9999H15.0531V11.5788H12.1582V10.9999ZM15.0529 13.3156L13.316 12.7367V12.1577L15.0529 12.7367V13.3156ZM5.50022 10.9999L5.99112 8.79092C6.03637 8.58748 5.88153 8.39453 5.6731 8.39453H5.32734C5.11898 8.39453 4.96421 8.58755 5.00933 8.79092L5.50022 10.9999Z" fill="#C8414B"/>
<path d="M7.52624 9.26172C7.37269 9.26174 7.22544 9.32274 7.11686 9.43132C7.00829 9.53989 6.94728 9.68715 6.94727 9.84069V13.6038C6.94727 14.3072 7.60376 15.6302 9.84201 15.6302C12.0803 15.6302 12.7368 14.3073 12.7368 13.6038V9.84069C12.7367 9.68715 12.6757 9.53989 12.5672 9.43132C12.4586 9.32274 12.3113 9.26174 12.1578 9.26172H7.52624Z" fill="#F5F5F5"/>
<path d="M9.84201 12.1565H6.94727V9.84069C6.94728 9.68715 7.00829 9.53989 7.11686 9.43132C7.22544 9.32274 7.37269 9.26174 7.52624 9.26172H9.84201V12.1565ZM9.84201 12.1565H12.7368V13.6038C12.7368 14.4032 12.0888 15.0512 11.2894 15.0512C10.49 15.0512 9.84201 14.4032 9.84201 13.6038V12.1565Z" fill="#C8414B"/>
<path d="M6.94727 12.1582H9.84201V13.6056C9.84201 14.405 9.19404 15.0529 8.39464 15.0529C7.59523 15.0529 6.94727 14.405 6.94727 13.6056V12.1582Z" fill="#FAB446"/>
<path d="M9.26323 14.757V12.1582H8.68425V15.0238C8.89963 14.9801 9.09422 14.8847 9.26323 14.757ZM8.10534 15.0238V12.1582H7.52637V14.757C7.69544 14.8847 7.89003 14.9801 8.10534 15.0238Z" fill="#C8414B"/>
<path d="M7.52637 11H9.26323V11.579H7.52637V11Z" fill="#FFB441"/>
<path d="M7.52637 9.8418H9.26323V10.4208H7.52637V9.8418Z" fill="#FAB446"/>
<path d="M7.81592 10.1855H8.9738V11.2344H7.81592V10.1855Z" fill="#FAB446"/>
<path d="M4.9209 9.8418H6.07878V14.7626H4.9209V9.8418Z" fill="#F5F5F5"/>
<path d="M4.63135 14.4743H6.36821V15.0533H4.63135V14.4743ZM4.63135 9.26367H6.36821V9.84265H4.63135V9.26367Z" fill="#FAB446"/>
<path d="M4.34229 15.0527H6.65805V15.6317H4.34229V15.0527Z" fill="#5064AA"/>
<path d="M13.605 14.4746H15.3418V15.0536H13.605V14.4746Z" fill="#FAB446"/>
<path d="M13.0259 15.0527H15.3416V15.6317H13.0259V15.0527Z" fill="#5064AA"/>
<path d="M8.10596 8.68359H11.5797V9.26257H8.10596V8.68359Z" fill="#FAB446"/>
<path d="M9.55273 6.94727H10.1317V8.68412H9.55273V6.94727Z" fill="#FFB441"/>
<path d="M9.26342 7.81492C8.78452 7.81492 8.39502 7.42535 8.39502 6.94652C8.39502 6.46763 8.78459 6.07812 9.26342 6.07812C9.74231 6.07812 10.1318 6.46769 10.1318 6.94652C10.1319 7.42535 9.74231 7.81492 9.26342 7.81492ZM9.26342 6.65703C9.18666 6.65709 9.11305 6.6876 9.05878 6.74188C9.0045 6.79616 8.97398 6.86976 8.97393 6.94652C8.97393 7.10622 9.10365 7.23601 9.26342 7.23601C9.42318 7.23601 9.5529 7.10628 9.5529 6.94652C9.55285 6.86976 9.52234 6.79616 9.46806 6.74188C9.41378 6.6876 9.34018 6.65709 9.26342 6.65703Z" fill="#F5F5F5"/>
<path d="M10.4211 7.81492C9.94224 7.81492 9.55273 7.42535 9.55273 6.94652C9.55273 6.46763 9.9423 6.07812 10.4211 6.07812C10.9 6.07812 11.2895 6.46769 11.2895 6.94652C11.2895 7.42535 10.9 7.81492 10.4211 7.81492ZM10.4211 6.65703C10.3444 6.65709 10.2708 6.6876 10.2165 6.74188C10.1622 6.79616 10.1317 6.86976 10.1316 6.94652C10.1317 7.02328 10.1622 7.09688 10.2165 7.15116C10.2708 7.20544 10.3444 7.23596 10.4211 7.23601C10.4979 7.23596 10.5715 7.20544 10.6258 7.15116C10.68 7.09688 10.7106 7.02328 10.7106 6.94652C10.7105 6.86977 10.68 6.79617 10.6258 6.7419C10.5715 6.68763 10.4979 6.6571 10.4211 6.65703Z" fill="#F5F5F5"/>
<path d="M11.5789 8.395C11.1 8.395 10.7105 8.00543 10.7105 7.5266C10.7105 7.04771 11.1001 6.6582 11.5789 6.6582C12.0578 6.6582 12.4473 7.04777 12.4473 7.5266C12.4473 8.00543 12.0578 8.395 11.5789 8.395ZM11.5789 7.23711C11.5022 7.23716 11.4286 7.26768 11.3743 7.32196C11.32 7.37624 11.2895 7.44984 11.2894 7.5266C11.2895 7.60336 11.32 7.67696 11.3743 7.73124C11.4286 7.78552 11.5022 7.81604 11.5789 7.81609C11.7386 7.81609 11.8684 7.68636 11.8684 7.5266C11.8684 7.36684 11.7386 7.23711 11.5789 7.23711ZM8.10521 8.395C7.62632 8.395 7.23682 8.00543 7.23682 7.5266C7.23682 7.04771 7.62638 6.6582 8.10521 6.6582C8.58411 6.6582 8.97361 7.04777 8.97361 7.5266C8.97368 8.00543 8.58411 8.395 8.10521 8.395ZM8.10521 7.23711C8.02845 7.23716 7.95485 7.26768 7.90057 7.32196C7.84629 7.37624 7.81578 7.44984 7.81573 7.5266C7.81573 7.6863 7.94545 7.81609 8.10521 7.81609C8.26498 7.81609 8.3947 7.6863 8.3947 7.52653C8.39465 7.44978 8.36413 7.37618 8.30985 7.32192C8.25557 7.26765 8.18197 7.23715 8.10521 7.23711Z" fill="#F5F5F5"/>
<path d="M11.5784 13.3152V13.6047C11.5784 13.7644 11.4485 13.8942 11.2889 13.8942C11.1292 13.8942 10.9994 13.7644 10.9994 13.6047V13.3152H11.5784ZM12.1573 12.7363H10.4204V13.6047C10.4204 14.0836 10.81 14.4731 11.2888 14.4731C11.7677 14.4731 12.1572 14.0836 12.1572 13.6047L12.1573 12.7363Z" fill="#FAB446"/>
<path d="M11.2894 11.5779C11.1359 11.5779 10.9886 11.5169 10.88 11.4083C10.7715 11.2997 10.7105 11.1525 10.7104 10.9989V10.4199C10.7127 10.2679 10.7747 10.1228 10.8831 10.0161C10.9914 9.90943 11.1374 9.84961 11.2894 9.84961C11.4415 9.84961 11.5874 9.90943 11.6958 10.0161C11.8041 10.1228 11.8661 10.2679 11.8684 10.4199V10.9989C11.8684 11.1525 11.8074 11.2997 11.6988 11.4083C11.5902 11.5169 11.443 11.5779 11.2894 11.5779Z" fill="#FFA0D2"/>
<path d="M9.84203 13.0259C10.3216 13.0259 10.7104 12.6371 10.7104 12.1575C10.7104 11.6779 10.3216 11.2891 9.84203 11.2891C9.36243 11.2891 8.97363 11.6779 8.97363 12.1575C8.97363 12.6371 9.36243 13.0259 9.84203 13.0259Z" fill="#5064AA"/>
<path d="M9.55273 5.78906H10.1317V7.52592H9.55273V5.78906Z" fill="#FAB446"/>
<path d="M8.10534 8.68408L7.52637 8.10511L7.8655 7.76597C8.38978 7.24176 9.10081 6.94727 9.8422 6.94727C10.5836 6.94727 11.2946 7.24176 11.8189 7.76597L12.158 8.10511L11.5791 8.68408H8.10534Z" fill="#C8414B"/>
<path d="M9.84222 8.39538C10.0021 8.39538 10.1317 8.26577 10.1317 8.10589C10.1317 7.94601 10.0021 7.81641 9.84222 7.81641C9.68234 7.81641 9.55273 7.94601 9.55273 8.10589C9.55273 8.26577 9.68234 8.39538 9.84222 8.39538Z" fill="#FFD250"/>
<path d="M8.68353 8.39538C8.84341 8.39538 8.97302 8.26577 8.97302 8.10589C8.97302 7.94601 8.84341 7.81641 8.68353 7.81641C8.52365 7.81641 8.39404 7.94601 8.39404 8.10589C8.39404 8.26577 8.52365 8.39538 8.68353 8.39538Z" fill="#FFD250"/>
<path d="M10.9994 8.39538C11.1593 8.39538 11.2889 8.26577 11.2889 8.10589C11.2889 7.94601 11.1593 7.81641 10.9994 7.81641C10.8396 7.81641 10.71 7.94601 10.71 8.10589C10.71 8.26577 10.8396 8.39538 10.9994 8.39538Z" fill="#FFD250"/>
<path d="M4.63135 11H7.52622V11.579H4.63135V11ZM4.63141 13.3158L6.36821 12.7369V12.1579L4.63141 12.7369V13.3158Z" fill="#C8414B"/>
</svg>
